<svg height="24" width="24" xmlns="http://www.w3.org/2000/svg" viewBox="0 0 512 512" xml:space="preserve"  fill="currentColor">
  <path d="M488.727 108.606H325.818V23.273C325.818 10.42 315.398 0 302.545 0H23.273C10.42 0 0 10.42 0 23.273v465.455C0 501.58 10.42 512 23.273 512h465.455C501.58 512 512 501.58 512 488.727V131.879c0-12.853-10.42-23.273-23.273-23.273zm-162.912 46.546v46.545h-93.088v-46.545h93.088zm0 93.09v46.536l-93.088-.009v-46.527h93.088zM186.182 131.879v92.971c0 .04-.006.079-.006.12s.006.079.006.119v92.829c0 .04-.006.079-.006.119s.006.079.006.121v147.296h-46.545v-23.282c0-12.853-10.42-23.273-23.273-23.273s-23.273 10.42-23.273 23.273v23.282H46.545V46.545h232.727v62.061h-69.818c-12.852 0-23.272 10.42-23.272 23.273zm279.273 333.576h-93.091v-23.282c0-12.853-10.42-23.273-23.273-23.273s-23.273 10.42-23.273 23.273v23.282h-93.091v-124.14l116.075.012c.096 0 .189.014.286.014.096 0 .189-.014.285-.014l116.081.011v124.117zm0-170.662-93.094-.009v-46.541h93.094v46.55zm0-93.096h-93.094v-46.545h93.094v46.545z"/>
</svg>
